<?xml version="1.0" encoding="UTF-8"?>
<svg id="Laag_1" xmlns="http://www.w3.org/2000/svg" version="1.1" viewBox="0 0 1920 262.6">
  <!-- Generator: Adobe Illustrator 30.2.1, SVG Export Plug-In . SVG Version: 2.1.1 Build 1)  -->
  <defs>
    <style>
      .st0 {
        fill: #fff;
      }
    </style>
  </defs>
  <path class="st0" d="M393.6,91.2c2.1-5.8,4.1-11.1,5.8-16.1,1.7-5,3.3-9.4,4.7-13.3,1.4-3.9,2.3-6.9,2.8-9.2,1-4.2,1.1-9.4.2-15.4-.9-6-2.4-11.8-4.7-17.3-2.3-5.5-5.1-10.2-8.6-14.1-3.5-3.9-7.4-5.8-11.6-5.8H81.4L0,262.6h117.8L187.2,56.7h64.3c6.6,0,12.4,0,17.4.2,5,.1,8.3.3,9.8.6,6,1.3,10.6,4.6,13.9,10.1,3.2,5.5,3.5,12.1.7,19.9-1.5,4.3-2.9,8.4-4.1,12.4-1.3,4-2.6,7.6-4.1,10.7-1.5,3.1-3.3,5.8-5.3,7.9-2,2.1-4.6,3.2-7.9,3.2h-70.9l-19.5,55.5h66.2c12.4,0,24.4,0,36.2.2,11.8.1,22.6.2,32.4.2h22.3c2.5,0,5.6-1,9.4-3,3.8-2,7.3-4.3,10.7-6.9,3.4-2.6,6.3-5.4,8.8-8.3,2.5-2.9,3.8-5.3,3.8-7.3,6-15.5,11.4-30,16.1-43.5,2-5.7,4.1-11.5,6.2-17.3Z"/>
  <path class="st0" d="M548.7,40.8c3.8-12.4,8-25.9,12.8-40.7,0,.3-1.6.4-4.9.4h-51.4c-16.5,0-35.1-.1-55.9-.4l-76.9,262.6h108.8c14.8-49.3,28.1-93.1,40.1-131.7,5-16.5,9.9-32.6,14.6-48.2,4.7-15.6,9-29.6,12.8-42Z"/>
  <polygon class="st0" points="522.1 262.6 594.9 263 636.5 119.3 588.5 29.3 522.1 262.6"/>
  <path class="st0" d="M1219.7,37.2c1.5-4.7,3-9.4,4.5-13.9,1.5-4.5,2.8-8.5,3.9-12,1.1-3.5,2.4-7.2,3.9-11.3,0,.3-4.7.4-14.1.4h-149.1c-42.8,0-90.7,0-143.7-.3h0c0,0-96,0-96,0l-46.1,130.9-52.5-102.8c-5.3-9.2-11.7-16.4-19.3-21.4-7.6-5-13.7-7.2-18.2-6.8h-93.8l133.5,262.9h112.9l56.8-187.9h86.8l-55.9,187.5h108.8c10.7-35.3,20.3-66.6,28.5-94.1,3.5-11.8,7-23.3,10.5-34.5,3.5-11.3,6.6-21.2,9.2-30,2.6-8.7,5.6-18.4,8.8-28.9h108.4c4.5-14.3,8.5-26.9,12-37.9Z"/>
  <path class="st0" d="M1527.7,198.7c-5.3-.1-12.4-.2-21.6-.2s-19.7,0-31.7.2c-12,.1-24.4.2-37.1.2s-25.4,0-37.9.2c-12.5.1-23.8.3-33.9.4-10.1.1-18.6.2-25.3.2h-12c-2,0-3.7-1.4-5.1-4.3-1.4-2.9-1.8-5.3-1.3-7.3l36.8-122.3h211.9L1590.3,0l-331.9.4-66.4,205.5c-2,6.3-1.6,12.8,1.1,19.5,2.7,6.8,5.9,12.9,9.4,18.4,1.7,2.5,4,4.9,6.8,7.1,2.7,2.3,5.8,4.3,9.2,6,3.4,1.8,6.8,3.1,10.3,4.1,3.5,1,6.8,1.5,9.8,1.5h277.2l18.8-63.4c.7-.2-1.5-.4-6.8-.6Z"/>
  <polygon class="st0" points="1523.2 156.5 1544.9 98 1376.5 98 1355.5 156.5 1523.2 156.5"/>
  <polygon class="st0" points="1776.7 123.8 1907.2 0 1797 0 1719 75.8 1695.7 151.6 1809.7 262.6 1920 261.9 1776.7 123.8"/>
  <path class="st0" d="M1715.2,0c0,.3-1.6.4-4.9.4h-51.4c-16.5,0-35.1-.1-55.9-.4l-76.9,262.6h108.8c14.8-49.3,28.1-93.1,40.1-131.7,5-16.5,9.9-32.6,14.6-48.2,4.7-15.6,9-29.6,12.8-42,3.8-12.4,8-25.9,12.8-40.7Z"/>
</svg>